<svg width="249" height="72" viewBox="0 0 249 72" fill="none" xmlns="http://www.w3.org/2000/svg">
<path d="M64 0C68.4183 0 72 3.58172 72 8V64C72 68.4183 68.4183 72 64 72H8C3.58172 72 3.22139e-08 68.4183 0 64V8C0 3.58172 3.58172 3.22128e-08 8 0H64ZM17.1104 47.9941C16.4971 47.9943 16 48.4913 16 49.1045V54.8896C16 55.5028 16.4971 55.9999 17.1104 56H22.8965C23.5098 56 24.0068 55.5029 24.0068 54.8896V49.1045C24.0068 48.4913 23.5098 47.9941 22.8965 47.9941H17.1104ZM17.1104 16C16.4973 16.0001 16 16.4974 16 17.1104V22.8867C16 23.1717 16.109 23.4311 16.2852 23.6279L16.3027 23.6445C16.32 23.6635 16.3372 23.6807 16.3545 23.6963L29.3096 36.6504C29.7293 37.07 30.4017 37.0802 30.8369 36.6865L35.2373 32.2861C35.5015 31.9805 35.4912 31.5216 35.2012 31.2314L29.8643 25.8955C29.1647 25.1961 29.6607 23.999 30.6504 23.999H46.8887C47.196 23.999 47.4727 24.1231 47.6748 24.3232C47.8752 24.5236 48 24.802 48 25.1094V41.3457C47.9999 42.3351 46.803 42.8302 46.1035 42.1309L40.7666 36.7949C40.4765 36.5048 40.0167 36.4947 39.7109 36.7588L35.3096 41.1592C34.916 41.5944 34.9271 42.266 35.3467 42.6855L48.3018 55.6387L48.3711 55.708C48.568 55.8824 48.8273 55.9912 49.1123 55.9912H54.8896C55.5027 55.9911 56 55.4938 56 54.8809H55.998V17.1104C55.998 16.803 55.8742 16.5263 55.6738 16.3242C55.4735 16.124 55.1951 16 54.8877 16H17.1104Z" fill="white"/>
<path d="M92.3064 24.2805C91.0713 24.2805 90.0364 23.894 89.2018 23.1211C88.4006 22.3146 88 21.3233 88 20.1471C88 18.971 88.4006 17.9965 89.2018 17.2236C90.0364 16.417 91.0713 16.0138 92.3064 16.0138C93.5416 16.0138 94.5598 16.417 95.361 17.2236C96.1956 17.9965 96.6129 18.971 96.6129 20.1471C96.6129 21.3233 96.1956 22.3146 95.361 23.1211C94.5598 23.894 93.5416 24.2805 92.3064 24.2805ZM95.7616 27.6073V55.5326H88.7511V27.6073H95.7616Z" fill="white"/>
<path d="M100.885 41.4691C100.885 38.6463 101.436 36.1428 102.538 33.9585C103.673 31.7742 105.192 30.094 107.095 28.9179C109.031 27.7417 111.184 27.1536 113.554 27.1536C115.624 27.1536 117.427 27.5737 118.962 28.4138C120.531 29.2539 121.783 30.3125 122.718 31.5894V27.6073H129.779V55.5326H122.718V51.4496C121.817 52.7602 120.565 53.8523 118.962 54.726C117.393 55.5662 115.574 55.9862 113.504 55.9862C111.167 55.9862 109.031 55.3813 107.095 54.1716C105.192 52.9618 103.673 51.2648 102.538 49.0805C101.436 46.8626 100.885 44.3255 100.885 41.4691ZM122.718 41.5699C122.718 39.8561 122.384 38.3943 121.716 37.1846C121.049 35.9412 120.147 35.0003 119.012 34.3618C117.877 33.6897 116.659 33.3537 115.357 33.3537C114.055 33.3537 112.853 33.6729 111.752 34.3114C110.65 34.9499 109.749 35.8908 109.048 37.1341C108.38 38.3439 108.046 39.7889 108.046 41.4691C108.046 43.1493 108.38 44.6279 109.048 45.9049C109.749 47.1483 110.65 48.106 111.752 48.7781C112.887 49.4502 114.088 49.7862 115.357 49.7862C116.659 49.7862 117.877 49.467 119.012 48.8285C120.147 48.1564 121.049 47.2155 121.716 46.0057C122.384 44.7623 122.718 43.2838 122.718 41.5699Z" fill="white"/>
<path d="M151.999 27.2041C155.303 27.2041 157.974 28.2626 160.011 30.3797C162.047 32.4631 163.065 35.3867 163.065 39.1504V55.5326H156.055V40.1081C156.055 37.8903 155.504 36.1932 154.402 35.0171C153.3 33.8073 151.798 33.2024 149.895 33.2024C147.959 33.2024 146.424 33.8073 145.288 35.0171C144.187 36.1932 143.636 37.8903 143.636 40.1081V55.5326H136.626V27.6073H143.636V31.0854C144.571 29.8756 145.756 28.9347 147.191 28.2626C148.66 27.5569 150.263 27.2041 151.999 27.2041Z" fill="white"/>
<path d="M182.05 55.9862C179.38 55.9862 176.976 55.3981 174.839 54.222C172.703 53.0122 171.017 51.3152 169.782 49.1309C168.58 46.9466 167.979 44.4263 167.979 41.5699C167.979 38.7136 168.597 36.1932 169.832 34.0089C171.1 31.8247 172.82 30.1444 174.99 28.9683C177.16 27.7585 179.58 27.1536 182.25 27.1536C184.921 27.1536 187.341 27.7585 189.511 28.9683C191.681 30.1444 193.384 31.8247 194.619 34.0089C195.888 36.1932 196.522 38.7136 196.522 41.5699C196.522 44.4263 195.871 46.9466 194.569 49.1309C193.3 51.3152 191.564 53.0122 189.361 54.222C187.191 55.3981 184.754 55.9862 182.05 55.9862ZM182.05 49.8366C183.319 49.8366 184.504 49.5342 185.605 48.9293C186.741 48.2908 187.642 47.3499 188.31 46.1065C188.977 44.8632 189.311 43.351 189.311 41.5699C189.311 38.9152 188.61 36.8821 187.208 35.4707C185.839 34.0257 184.153 33.3032 182.15 33.3032C180.147 33.3032 178.461 34.0257 177.093 35.4707C175.757 36.8821 175.09 38.9152 175.09 41.5699C175.09 44.2247 175.741 46.2745 177.043 47.7195C178.378 49.1309 180.047 49.8366 182.05 49.8366Z" fill="white"/>
<path d="M208.675 31.9423C209.576 30.4637 210.745 29.3043 212.18 28.4642C213.649 27.6241 215.318 27.2041 217.188 27.2041V34.6138H215.335C213.131 34.6138 211.462 35.1347 210.327 36.1764C209.226 37.2182 208.675 39.0328 208.675 41.6203V55.5326H201.664V27.6073H208.675V31.9423Z" fill="white"/>
<path d="M220.107 41.4691C220.107 38.6463 220.658 36.1428 221.759 33.9585C222.894 31.7742 224.43 30.094 226.366 28.9179C228.302 27.7417 230.456 27.1536 232.826 27.1536C234.628 27.1536 236.348 27.5569 237.984 28.3634C239.619 29.1363 240.921 30.178 241.889 31.4886V18.2317H249V55.5326H241.889V51.3992C241.021 52.777 239.803 53.8859 238.234 54.726C236.665 55.5662 234.845 55.9862 232.776 55.9862C230.439 55.9862 228.302 55.3813 226.366 54.1716C224.43 52.9618 222.894 51.2648 221.759 49.0805C220.658 46.8626 220.107 44.3255 220.107 41.4691ZM241.939 41.5699C241.939 39.8561 241.606 38.3943 240.938 37.1846C240.27 35.9412 239.369 35.0003 238.234 34.3618C237.099 33.6897 235.88 33.3537 234.578 33.3537C233.276 33.3537 232.075 33.6729 230.973 34.3114C229.871 34.9499 228.97 35.8908 228.269 37.1341C227.601 38.3439 227.267 39.7889 227.267 41.4691C227.267 43.1493 227.601 44.6279 228.269 45.9049C228.97 47.1483 229.871 48.106 230.973 48.7781C232.108 49.4502 233.31 49.7862 234.578 49.7862C235.88 49.7862 237.099 49.467 238.234 48.8285C239.369 48.1564 240.27 47.2155 240.938 46.0057C241.606 44.7623 241.939 43.2838 241.939 41.5699Z" fill="white"/>
</svg>
