<svg width="80" height="88" viewBox="0 0 80 88" fill="none" xmlns="http://www.w3.org/2000/svg">
<path fill-rule="evenodd" clip-rule="evenodd" d="M71.1111 4C76.0203 4 80 7.97969 80 12.8889V75.1111C80 80.0203 76.0203 84 71.1111 84H8.88889C3.97969 84 3.57932e-08 80.0203 0 75.1111V12.8889C0 7.97969 3.97969 4 8.88889 4H71.1111ZM19.0115 57.3268C18.3301 57.327 17.7778 57.8793 17.7778 58.5605V64.9885C17.7778 65.6698 18.3301 66.2221 19.0115 66.2222H25.4405C26.122 66.2222 26.6742 65.6699 26.6743 64.9885V58.5605C26.6742 57.8792 26.122 57.3268 25.4405 57.3268H19.0115ZM19.0115 21.7778C18.3304 21.7779 17.7778 22.3304 17.7778 23.0115V29.4297C17.7778 29.7463 17.8989 30.0345 18.0946 30.2533L18.1142 30.2717C18.1333 30.2928 18.1525 30.3119 18.1717 30.3292L32.5662 44.7227C33.0325 45.1889 33.7796 45.2003 34.2632 44.7628L39.1526 39.8735C39.4461 39.5339 39.4347 39.024 39.1124 38.7016L33.1825 32.7728C32.4053 31.9957 32.9563 30.6656 34.056 30.6656H52.0985C52.44 30.6656 52.7475 30.8034 52.972 31.0258C53.1946 31.2484 53.3333 31.5578 53.3333 31.8993V49.9397C53.3332 51.0391 52.0033 51.5891 51.2261 50.8121L45.2962 44.8832C44.9739 44.5609 44.4629 44.5497 44.1233 44.8431L39.2329 49.7324C38.7956 50.216 38.8078 50.9622 39.2741 51.4284L53.7457 65.8978C53.9644 66.0916 54.2526 66.2125 54.5692 66.2125H60.9885C61.6697 66.2123 62.2222 65.6598 62.2222 64.9787H62.2201V23.0115C62.22 22.67 62.0824 22.3625 61.8598 22.138C61.6372 21.9155 61.3279 21.7778 60.9863 21.7778H19.0115Z" fill="#35415A"/>
</svg>
