<svg width="80" height="88" viewBox="0 0 80 88" fill="none" xmlns="http://www.w3.org/2000/svg">
<path d="M76.612 19.5892L43.3949 0.886807C41.2948 -0.295602 38.7052 -0.295602 36.605 0.886807L3.38454 19.5892C1.29133 20.7682 0 22.9438 0 25.3019V62.7032C0 65.0579 1.29133 67.2335 3.38454 68.4159L36.605 87.1149C37.6534 87.7061 38.8267 88 40 88C41.1733 88 42.3431 87.7061 43.3949 87.1149L76.6155 68.4159C78.7087 67.2369 80 65.0613 80 62.7032V25.3019C80 22.9472 78.7087 20.7716 76.6155 19.5892H76.612Z" fill="#1D9DA6"/>
<path d="M26.6559 61.7935C27.4708 62.5979 28.4504 63 29.5948 63H50.4013C51.5456 63 52.5253 62.5979 53.3402 61.7935C54.1551 60.9892 54.5626 60.0223 54.5626 58.8929V56.8387C54.5626 55.7049 53.6442 54.7858 52.5113 54.7858H27.4848C26.3519 54.7858 25.4335 55.7049 25.4335 56.8387V58.8929C25.4335 60.0223 25.8409 60.9892 26.6559 61.7935Z" fill="white"/>
<path d="M27.4222 52.7147C26.2759 52.7147 25.3467 51.8286 25.3467 50.7356V47.0167C25.3467 46.2631 24.8862 45.5907 24.2287 45.1726C23.1297 44.4738 22.2216 43.5812 21.5045 42.4949C20.5572 41.0597 20.0835 39.5007 20.0835 37.818C20.0835 35.3435 20.987 33.2484 22.794 31.5327C24.601 29.8171 26.8203 28.9592 29.4519 28.9592C29.873 28.9592 30.3028 28.9922 30.7414 29.0582C31.516 29.1748 32.2971 28.8634 32.7918 28.2832C33.5374 27.409 34.4241 26.694 35.4519 26.1383C36.8554 25.3794 38.3993 25 40.0835 25C41.7677 25 43.3116 25.3794 44.7151 26.1383C45.7504 26.6981 46.6425 27.4194 47.3915 28.3024C47.8749 28.8723 48.6407 29.1771 49.3993 29.0582C49.8203 28.9922 50.2589 28.9592 50.7151 28.9592C53.3467 28.9592 55.566 29.8171 57.373 31.5327C59.18 33.2484 60.0835 35.3435 60.0835 37.818C60.0835 39.5007 59.6098 41.0597 58.6624 42.4949C57.9454 43.5812 57.0373 44.4738 55.9383 45.1726C55.2808 45.5907 54.8203 46.2631 54.8203 47.0167V50.7356C54.8203 51.8286 53.8911 52.7147 52.7448 52.7147H27.4222Z" fill="white"/>
<path d="M38.7659 35.0526C38.7659 34.3242 39.3559 33.7338 40.0836 33.7338C40.8114 33.7338 41.4014 34.3242 41.4014 35.0526V46.5332C41.4014 47.2615 40.8114 47.852 40.0836 47.852C39.3559 47.852 38.7659 47.2615 38.7659 46.5332V35.0526Z" fill="#1D9DA6"/>
<path d="M47.7162 34.9148C47.8458 34.1987 48.5319 33.7179 49.2486 33.841C49.9654 33.9641 50.4413 34.6444 50.3116 35.3605L48.264 46.671C48.1344 47.3871 47.4483 47.8678 46.7316 47.7447C46.0149 47.6216 45.5389 46.9413 45.6686 46.2252L47.7162 34.9148Z" fill="#1D9DA6"/>
<path d="M29.8555 35.3606C29.7259 34.6445 30.2018 33.9642 30.9185 33.8411C31.6352 33.718 32.3213 34.1987 32.451 34.9148L34.4986 46.2253C34.6282 46.9414 34.1523 47.6217 33.4356 47.7448C32.7189 47.8679 32.0328 47.3871 31.9031 46.671L29.8555 35.3606Z" fill="#1D9DA6"/>
</svg>
