<svg width="80" height="88" viewBox="0 0 80 88" fill="none" xmlns="http://www.w3.org/2000/svg">
<path d="M76.6123 19.5876L43.3912 0.886739C41.2912 -0.29558 38.7018 -0.29558 36.6019 0.886739L3.38424 19.5876C1.28775 20.7666 0 22.9421 0 25.2999V62.7017C0 65.0563 1.29122 67.2351 3.38424 68.414L36.6053 87.115C37.6571 87.7061 38.8268 88 40 88C41.1732 88 42.3429 87.7061 43.3947 87.115L76.6158 68.414C78.7123 67.2351 80 65.0596 80 62.7017V25.2999C80 22.9454 78.7088 20.7666 76.6158 19.5876H76.6123Z" fill="#D8A707"/>
<path d="M45.2 53C45.9732 53.7732 47.2268 53.7732 48 53C48.7732 52.2268 48.7732 50.9732 48 50.2L42.5858 44.7858C42.2107 44.4108 42 43.9021 42 43.3716V37C42 35.8955 41.1046 35 40 35C38.8954 35 38 35.8955 38 37V44.9716C38 45.5021 38.2107 46.0108 38.5858 46.3858L45.2 53ZM40 65C37.2333 65 34.6333 64.475 32.2 63.425C29.7667 62.375 27.65 60.95 25.85 59.15C24.05 57.35 22.625 55.2334 21.575 52.8C20.525 50.3667 20 47.7667 20 45C20 42.2334 20.525 39.6334 21.575 37.2C22.625 34.7667 24.05 32.65 25.85 30.85C27.65 29.05 29.7667 27.625 32.2 26.575C34.6333 25.525 37.2333 25 40 25C42.7667 25 45.3667 25.525 47.8 26.575C50.2333 27.625 52.35 29.05 54.15 30.85C55.95 32.65 57.375 34.7667 58.425 37.2C59.475 39.6334 60 42.2334 60 45C60 47.7667 59.475 50.3667 58.425 52.8C57.375 55.2334 55.95 57.35 54.15 59.15C52.35 60.95 50.2333 62.375 47.8 63.425C45.3667 64.475 42.7667 65 40 65Z" fill="white"/>
</svg>
