<svg width="80" height="88" viewBox="0 0 80 88" fill="none" xmlns="http://www.w3.org/2000/svg">
<path d="M76.5737 19.5891L43.3343 0.886807C41.2341 -0.295602 38.634 -0.295602 36.5337 0.886807L3.34997 19.5891C1.2532 20.7682 0 22.9438 0 25.3019V62.7032C0 65.0579 1.2532 67.2335 3.3465 68.4159L36.5476 87.1149C37.596 87.7061 38.7589 88 39.9323 88C41.1057 88 42.2721 87.7061 43.3205 87.1149L76.5771 68.4159C78.6704 67.2369 80 65.0612 80 62.7032V25.3019C80 22.9472 78.6704 20.7716 76.5771 19.5891H76.5737Z" fill="#E57027"/>
<path d="M32.3492 64.9999C31.7496 64.9999 31.2469 64.7971 30.8413 64.3915C30.4356 63.9858 30.2328 63.4832 30.2328 62.8835V41.9312C29.0688 41.9312 28.0723 41.5167 27.2434 40.6878C26.4145 39.8588 26 38.8624 26 37.6984V26.4814C26 26.0581 26.1411 25.7054 26.4233 25.4232C26.7055 25.141 27.0582 24.9999 27.4815 24.9999C27.9048 24.9999 28.2575 25.141 28.5397 25.4232C28.8219 25.7054 28.963 26.0581 28.963 26.4814V34.5132C28.963 35.0392 29.3894 35.4655 29.9153 35.4655C30.4413 35.4655 30.8677 35.0392 30.8677 34.5132V26.4814C30.8677 26.0581 31.0088 25.7054 31.291 25.4232C31.5732 25.141 31.9259 24.9999 32.3492 24.9999C32.7725 24.9999 33.1252 25.141 33.4074 25.4232C33.6896 25.7054 33.8307 26.0581 33.8307 26.4814V34.5132C33.8307 35.0392 34.2571 35.4655 34.7831 35.4655C35.3091 35.4655 35.7354 35.0392 35.7354 34.5132V26.4814C35.7354 26.0581 35.8765 25.7054 36.1587 25.4232C36.4409 25.141 36.7937 24.9999 37.2169 24.9999C37.6402 24.9999 37.9929 25.141 38.2751 25.4232C38.5573 25.7054 38.6984 26.0581 38.6984 26.4814V37.6984C38.6984 38.8624 38.284 39.8588 37.455 40.6878C36.6261 41.5167 35.6296 41.9312 34.4656 41.9312V62.8835C34.4656 63.4832 34.2628 63.9858 33.8571 64.3915C33.4515 64.7971 32.9489 64.9999 32.3492 64.9999Z" fill="white"/>
<path d="M45.3069 64.2063C45.7125 64.6119 46.2152 64.8148 46.8148 64.8148C47.4145 64.8148 47.9171 64.6119 48.3228 64.2063C48.7284 63.8006 48.9312 63.298 48.9312 62.6984V48.9788C48.9312 48.4265 49.3789 47.9788 49.9312 47.9788H51.0476C53.164 47.9788 53.164 44.6469 53.164 43.8624V33.2804C53.164 31.2698 52.4938 29.4179 51.1534 27.7248C49.8131 26.0317 48.3492 25.1851 46.7619 25.1851C46.1623 25.1851 45.6684 25.3879 45.2804 25.7936C44.8924 26.1992 44.6984 26.7019 44.6984 27.3015V62.6984C44.6984 63.298 44.9012 63.8006 45.3069 64.2063Z" fill="white"/>
</svg>
